<?xml version="1.0" standalone="no"?>
<!DOCTYPE svg PUBLIC "-//W3C//DTD SVG 20010904//EN"
 "http://www.w3.org/TR/2001/REC-SVG-20010904/DTD/svg10.dtd">
<svg version="1.0" xmlns="http://www.w3.org/2000/svg"
 width="788.000000pt" height="539.000000pt" viewBox="0 0 788.000000 539.000000"
 preserveAspectRatio="xMidYMid meet">
<g transform="translate(0.000000,539.000000) scale(0.100000,-0.100000)"
fill="#000000" stroke="none">
<path d="M1949 5179 c-306 -32 -627 -144 -860 -301 -114 -76 -294 -253 -366
-358 -161 -238 -227 -466 -227 -790 0 -622 252 -963 928 -1262 108 -48 527
-188 786 -263 236 -69 340 -106 465 -165 214 -101 323 -222 361 -399 53 -249
-57 -472 -289 -586 -369 -180 -930 -118 -1384 153 -120 72 -321 222 -410 306
l-71 66 -160 -212 c-88 -117 -206 -273 -262 -346 l-103 -134 54 -55 c322 -330
788 -576 1279 -677 194 -39 299 -49 515 -50 304 0 595 52 808 143 51 21 93 38
95 37 1 -2 -7 -29 -18 -61 -11 -32 -20 -60 -20 -62 0 -1 217 -3 483 -3 l484 0
10 32 c6 18 124 323 263 678 138 355 323 830 410 1055 87 226 229 592 315 815
87 223 197 509 245 635 167 437 157 414 170 380 6 -16 42 -109 80 -205 38 -96
118 -303 179 -460 60 -157 179 -466 265 -688 86 -221 156 -404 156 -407 0 -3
-179 -5 -397 -5 l-398 0 -59 -148 c-32 -81 -98 -241 -147 -357 -48 -115 -97
-234 -108 -263 l-21 -52 728 0 727 0 58 -148 c31 -81 120 -308 196 -505 77
-198 141 -360 143 -360 2 -1 224 -1 494 1 l491 2 -109 268 c-309 756 -1727
4286 -1844 4590 l-39 102 -403 -2 -404 -3 -114 -290 c-193 -487 -836 -2103
-958 -2405 -94 -232 -117 -280 -122 -260 -16 53 -88 183 -143 257 -109 147
-242 255 -451 366 -211 112 -360 166 -815 297 -407 117 -552 167 -714 247
-112 55 -145 77 -202 133 -99 97 -132 171 -137 307 -3 83 0 115 17 170 56 187
199 305 446 369 124 32 359 43 509 25 326 -41 636 -182 931 -422 l71 -57 91
137 c50 75 159 234 243 354 l152 219 -33 29 c-307 265 -729 471 -1142 554
-204 41 -515 56 -718 34z"/>
</g>
</svg>
